# Blender v2.92.0 OBJ File: ''
# www.blender.org
mtllib demo.mtl
o Cube
v 1.000000 0.333333 -1.000000
v 1.000000 -0.333333 -1.000000
v -1.000000 -0.333333 1.000000
v -1.000000 0.333333 1.000000
v 1.000000 0.333333 1.000000
v 1.000000 -0.333333 1.000000
v -1.000000 0.333333 -1.000000
v -1.000000 -0.333333 -1.000000
v -0.333333 -0.333333 -1.000000
v 0.333333 -0.333333 -1.000000
v -0.333333 0.333333 -1.000000
v 0.333333 0.333333 -1.000000
v 1.000000 -0.333333 -0.333333
v 1.000000 -0.333333 0.333333
v 1.000000 0.333333 -0.333333
v 1.000000 0.333333 0.333333
v -0.333333 -1.000000 -0.333333
v -0.333333 -1.000000 0.333333
v 0.333333 -1.000000 -0.333333
v 0.333333 -1.000000 0.333333
v -1.000000 -0.333333 0.333333
v -1.000000 -0.333333 -0.333333
v -1.000000 0.333333 0.333333
v -1.000000 0.333333 -0.333333
v 0.333333 -0.333333 1.000000
v -0.333333 -0.333333 1.000000
v 0.333333 0.333333 1.000000
v -0.333333 0.333333 1.000000
v 0.333333 1.000000 -0.333333
v 0.333333 1.000000 0.333333
v -0.333333 1.000000 -0.333333
v -0.333333 1.000000 0.333333
v 0.333333 2.000000 -0.333333
v 0.333333 2.000000 0.333333
v -0.333333 2.000000 -0.333333
v -0.333333 2.000000 0.333333
v -0.333333 -2.000000 -0.333333
v -0.333333 -2.000000 0.333333
v 0.333333 -2.000000 -0.333333
v 0.333333 -2.000000 0.333333
v 0.333333 -0.333333 2.000000
v -0.333333 -0.333333 2.000000
v 0.333333 0.333333 2.000000
v -0.333333 0.333333 2.000000
v 2.000000 -0.333333 -0.333333
v 2.000000 -0.333333 0.333333
v 2.000000 0.333333 -0.333333
v 2.000000 0.333333 0.333333
v -0.333333 -0.333333 -2.000000
v 0.333333 -0.333333 -2.000000
v -0.333333 0.333333 -2.000000
v 0.333333 0.333333 -2.000000
v -2.000000 -0.333333 0.333333
v -2.000000 -0.333333 -0.333333
v -2.000000 0.333333 0.333333
v -2.000000 0.333333 -0.333333
v 0.750000 1.000000 -0.750000
v 1.000000 0.750000 -1.000000
v 0.750000 1.000000 0.750000
v 1.000000 0.750000 1.000000
v -0.750000 1.000000 -0.750000
v -1.000000 0.750000 -1.000000
v -0.750000 1.000000 0.750000
v -1.000000 0.750000 1.000000
v 0.333333 1.000000 0.750000
v 0.333333 0.750000 1.000000
v -0.333333 0.750000 1.000000
v -0.333333 1.000000 0.750000
v 0.750000 1.000000 -0.333333
v 1.000000 0.750000 -0.333333
v 1.000000 0.750000 0.333333
v 0.750000 1.000000 0.333333
v -0.750000 1.000000 0.333333
v -1.000000 0.750000 0.333333
v -1.000000 0.750000 -0.333333
v -0.750000 1.000000 -0.333333
v -0.333333 1.000000 -0.750000
v -0.333333 0.750000 -1.000000
v 0.333333 0.750000 -1.000000
v 0.333333 1.000000 -0.750000
v 0.750000 -1.000000 -0.750000
v 1.000000 -0.750000 -1.000000
v 0.750000 -1.000000 0.750000
v 1.000000 -0.750000 1.000000
v -0.750000 -1.000000 -0.750000
v -1.000000 -0.750000 -1.000000
v -0.750000 -1.000000 0.750000
v -1.000000 -0.750000 1.000000
v -0.750000 -1.000000 -0.333333
v -1.000000 -0.750000 -0.333333
v -1.000000 -0.750000 0.333333
v -0.750000 -1.000000 0.333333
v 0.333333 -1.000000 -0.750000
v 0.333333 -0.750000 -1.000000
v -0.333333 -0.750000 -1.000000
v -0.333333 -1.000000 -0.750000
v -0.333333 -1.000000 0.750000
v -0.333333 -0.750000 1.000000
v 0.333333 -0.750000 1.000000
v 0.333333 -1.000000 0.750000
v 0.750000 -1.000000 0.333333
v 1.000000 -0.750000 0.333333
v 1.000000 -0.750000 -0.333333
v 0.750000 -1.000000 -0.333333
vt 0.791667 0.666667
vt 0.708333 0.718750
vt 0.708333 0.666667
vt 0.843750 0.666667
vt 0.791667 0.718750
vt 0.593750 0.250000
vt 0.541667 0.333333
vt 0.541667 0.250000
vt 0.458333 0.666667
vt 0.406250 0.750000
vt 0.406250 0.666667
vt 0.593750 0.750000
vt 0.541667 0.833333
vt 0.541667 0.750000
vt 0.593750 0.500000
vt 0.541667 0.583333
vt 0.541667 0.500000
vt 0.458333 0.750000
vt 0.406250 0.833333
vt 0.541667 0.416667
vt 0.458333 0.500000
vt 0.458333 0.416667
vt 0.458333 0.166667
vt 0.406250 0.250000
vt 0.406250 0.166667
vt 0.458333 0.833333
vt 0.406250 0.916667
vt 0.458333 0.333333
vt 0.458333 0.250000
vt 0.458333 0.416667
vt 0.593750 0.000000
vt 0.541667 0.083333
vt 0.541667 0.000000
vt 0.208333 0.531250
vt 0.156250 0.583333
vt 0.156250 0.531250
vt 0.541667 0.666667
vt 0.343750 0.531250
vt 0.291667 0.583333
vt 0.291667 0.531250
vt 0.458333 0.583333
vt 0.458333 0.583333
vt 0.656250 0.718750
vt 0.656250 0.666667
vt 0.843750 0.583333
vt 0.791667 0.583333
vt 0.458333 0.083333
vt 0.406250 0.083333
vt 0.343750 0.583333
vt 0.291667 0.666667
vt 0.406250 0.333333
vt 0.208333 0.583333
vt 0.406250 0.416667
vt 0.208333 0.666667
vt 0.208333 0.666667
vt 0.406250 0.500000
vt 0.406250 0.583333
vt 0.458333 0.000000
vt 0.406250 0.000000
vt 0.541667 0.166667
vt 0.458333 0.916667
vt 0.406250 1.000000
vt 0.156250 0.666667
vt 0.458333 0.083333
vt 0.593750 0.916667
vt 0.541667 1.000000
vt 0.541667 0.916667
vt 0.791667 0.531250
vt 0.708333 0.583333
vt 0.708333 0.531250
vt 0.156250 0.718750
vt 0.458333 1.000000
vt 0.343750 0.666667
vt 0.291667 0.718750
vt 0.208333 0.718750
vt 0.541667 0.916667
vt 0.843750 0.531250
vt 0.656250 0.583333
vt 0.593750 0.666667
vt 0.593750 0.833333
vt 0.593750 0.416667
vt 0.593750 0.583333
vt 0.593750 0.333333
vt 0.708333 0.583333
vt 0.593750 0.166667
vt 0.593750 0.083333
vt 0.791667 0.583333
vt 0.708333 0.666667
vt 0.791667 0.666667
vt 0.291667 0.583333
vt 0.208333 0.583333
vt 0.291667 0.666667
vt 0.541667 0.833333
vt 0.458333 0.916667
vt 0.458333 0.833333
vt 0.541667 0.583333
vt 0.458333 0.666667
vt 0.541667 0.666667
vt 0.541667 0.333333
vt 0.458333 0.333333
vt 0.541667 0.416667
vt 0.541667 0.083333
vt 0.458333 0.166667
vt 0.541667 0.166667
vt 0.625000 0.968750
vt 0.625000 0.916667
vt 0.625000 0.218750
vt 0.625000 0.166667
vt 0.625000 0.468750
vt 0.625000 0.416667
vt 0.625000 0.781250
vt 0.625000 0.833333
vt 0.656250 0.531250
vt 0.625000 0.031250
vt 0.625000 0.083333
vt 0.625000 0.281250
vt 0.625000 0.333333
vt 0.125000 0.666667
vt 0.208333 0.500000
vt 0.343750 0.718750
vt 0.291667 0.750000
vt 0.125000 0.583333
vt 0.125000 0.500000
vt 0.291667 0.500000
vt 0.375000 0.500000
vt 0.208333 0.750000
vt 0.125000 0.750000
vt 0.843750 0.718750
vt 0.593750 1.000000
vt 0.375000 0.750000
vn 0.0000 1.0000 0.0000
vn 0.0000 0.0000 -1.0000
vn 1.0000 0.0000 0.0000
vn 0.0000 0.0000 1.0000
vn -1.0000 0.0000 0.0000
vn 0.0000 -1.0000 0.0000
vn 0.0000 0.7071 0.7071
vn 0.7071 0.7071 0.0000
vn -0.7071 0.7071 0.0000
vn 0.0000 0.7071 -0.7071
vn -0.7071 -0.7071 0.0000
vn 0.0000 -0.7071 -0.7071
vn 0.0000 -0.7071 0.7071
vn 0.7071 -0.7071 0.0000
usemtl Material
s off
f 32/1/1 65/2/1 30/3/1
f 73/4/1 68/5/1 32/1/1
f 62/6/2 11/7/2 7/8/2
f 14/9/3 84/10/3 102/11/3
f 60/12/4 27/13/4 5/14/4
f 58/15/3 15/16/3 1/17/3
f 6/18/4 99/19/4 84/10/4
f 12/20/2 2/21/2 10/22/2
f 22/23/5 86/24/5 90/25/5
f 25/26/4 98/27/4 99/19/4
f 7/8/2 9/28/2 8/29/2
f 9/28/6 50/30/6 10/22/6
f 64/31/5 23/32/5 4/33/5
f 96/34/6 89/35/6 85/36/6
f 16/37/3 6/18/3 14/9/3
f 81/38/6 19/39/6 93/40/6
f 1/17/3 13/41/3 2/21/3
f 15/16/2 45/42/2 13/41/2
f 30/3/1 59/43/1 72/44/1
f 76/45/1 32/1/1 31/46/1
f 21/47/5 90/25/5 91/48/5
f 104/49/6 20/50/6 19/39/6
f 8/29/2 95/51/2 86/24/2
f 93/40/6 17/52/6 96/34/6
f 9/28/2 94/53/2 95/51/2
f 17/52/5 38/54/5 18/55/5
f 10/22/2 82/56/2 94/53/2
f 13/41/3 102/11/3 103/57/3
f 3/58/5 91/48/5 88/59/5
f 24/60/5 8/29/5 22/23/5
f 26/61/4 88/62/4 98/27/4
f 17/52/6 92/63/6 89/35/6
f 4/33/5 21/47/5 3/58/5
f 23/32/4 53/64/4 21/47/4
f 67/65/4 4/66/4 28/67/4
f 77/68/1 29/69/1 80/70/1
f 18/55/6 87/71/6 92/63/6
f 28/67/4 3/72/4 26/61/4
f 101/73/6 100/74/6 20/50/6
f 20/50/6 97/75/6 18/55/6
f 5/14/4 25/26/4 6/18/4
f 26/61/5 44/76/5 28/67/5
f 61/77/1 31/46/1 77/68/1
f 29/69/1 72/44/1 69/78/1
f 71/79/3 5/14/3 16/37/3
f 66/80/4 28/67/4 27/13/4
f 79/81/2 1/17/2 12/20/2
f 70/82/3 16/37/3 15/16/3
f 78/83/2 12/20/2 11/7/2
f 31/46/2 33/84/2 29/69/2
f 75/85/5 7/8/5 24/60/5
f 74/86/5 24/60/5 23/32/5
f 35/87/1 34/88/1 33/84/1
f 29/69/3 34/88/3 30/3/3
f 30/3/4 36/89/4 32/1/4
f 32/1/5 35/87/5 31/46/5
f 39/90/6 38/54/6 37/91/6
f 18/55/4 40/92/4 20/50/4
f 20/50/3 39/90/3 19/39/3
f 19/39/2 37/91/2 17/52/2
f 43/93/4 42/94/4 41/95/4
f 28/67/1 43/93/1 27/13/1
f 27/13/3 41/95/3 25/26/3
f 25/26/6 42/94/6 26/61/6
f 47/96/3 46/97/3 45/42/3
f 13/41/6 46/97/6 14/9/6
f 14/9/4 48/98/4 16/37/4
f 16/37/1 47/96/1 15/16/1
f 51/99/2 50/30/2 49/100/2
f 10/22/3 52/101/3 12/20/3
f 12/20/1 51/99/1 11/7/1
f 11/7/5 49/100/5 9/28/5
f 55/102/5 54/103/5 53/64/5
f 21/47/6 54/103/6 22/23/6
f 22/23/2 56/104/2 24/60/2
f 24/60/1 55/102/1 23/32/1
f 63/105/7 67/65/7 68/106/7
f 59/43/8 71/79/8 72/44/8
f 61/107/9 75/85/9 76/108/9
f 57/109/10 79/81/10 80/110/10
f 59/111/7 66/80/7 60/12/7
f 68/106/7 66/80/7 65/112/7
f 57/113/8 70/82/8 58/15/8
f 72/44/8 70/82/8 69/78/8
f 63/114/9 74/86/9 64/31/9
f 76/108/9 74/86/9 73/115/9
f 61/116/10 78/83/10 62/6/10
f 80/110/10 78/83/10 77/117/10
f 80/70/1 69/78/1 57/113/1
f 87/71/11 91/118/11 92/63/11
f 85/36/12 95/119/12 96/34/12
f 83/120/13 99/121/13 100/74/13
f 81/38/14 103/57/14 104/49/14
f 85/36/11 90/122/11 86/123/11
f 92/63/11 90/122/11 89/35/11
f 81/38/12 94/124/12 82/125/12
f 96/34/12 94/124/12 93/40/12
f 87/71/13 98/126/13 88/127/13
f 100/74/13 98/126/13 97/75/13
f 83/120/14 102/11/14 84/10/14
f 104/49/14 102/11/14 101/73/14
f 2/21/3 103/57/3 82/56/3
f 32/1/1 68/5/1 65/2/1
f 73/4/1 63/128/1 68/5/1
f 62/6/2 78/83/2 11/7/2
f 14/9/3 6/18/3 84/10/3
f 60/12/4 66/80/4 27/13/4
f 58/15/3 70/82/3 15/16/3
f 6/18/4 25/26/4 99/19/4
f 12/20/2 1/17/2 2/21/2
f 22/23/5 8/29/5 86/24/5
f 25/26/4 26/61/4 98/27/4
f 7/8/2 11/7/2 9/28/2
f 9/28/6 49/100/6 50/30/6
f 64/31/5 74/86/5 23/32/5
f 96/34/6 17/52/6 89/35/6
f 16/37/3 5/14/3 6/18/3
f 81/38/6 104/49/6 19/39/6
f 1/17/3 15/16/3 13/41/3
f 15/16/2 47/96/2 45/42/2
f 30/3/1 65/2/1 59/43/1
f 76/45/1 73/4/1 32/1/1
f 21/47/5 22/23/5 90/25/5
f 104/49/6 101/73/6 20/50/6
f 8/29/2 9/28/2 95/51/2
f 93/40/6 19/39/6 17/52/6
f 9/28/2 10/22/2 94/53/2
f 17/52/5 37/91/5 38/54/5
f 10/22/2 2/21/2 82/56/2
f 13/41/3 14/9/3 102/11/3
f 3/58/5 21/47/5 91/48/5
f 24/60/5 7/8/5 8/29/5
f 26/61/4 3/72/4 88/62/4
f 17/52/6 18/55/6 92/63/6
f 4/33/5 23/32/5 21/47/5
f 23/32/4 55/102/4 53/64/4
f 67/65/4 64/129/4 4/66/4
f 77/68/1 31/46/1 29/69/1
f 18/55/6 97/75/6 87/71/6
f 28/67/4 4/66/4 3/72/4
f 101/73/6 83/120/6 100/74/6
f 20/50/6 100/74/6 97/75/6
f 5/14/4 27/13/4 25/26/4
f 26/61/5 42/94/5 44/76/5
f 61/77/1 76/45/1 31/46/1
f 29/69/1 30/3/1 72/44/1
f 71/79/3 60/12/3 5/14/3
f 66/80/4 67/65/4 28/67/4
f 79/81/2 58/15/2 1/17/2
f 70/82/3 71/79/3 16/37/3
f 78/83/2 79/81/2 12/20/2
f 31/46/2 35/87/2 33/84/2
f 75/85/5 62/6/5 7/8/5
f 74/86/5 75/85/5 24/60/5
f 35/87/1 36/89/1 34/88/1
f 29/69/3 33/84/3 34/88/3
f 30/3/4 34/88/4 36/89/4
f 32/1/5 36/89/5 35/87/5
f 39/90/6 40/92/6 38/54/6
f 18/55/4 38/54/4 40/92/4
f 20/50/3 40/92/3 39/90/3
f 19/39/2 39/90/2 37/91/2
f 43/93/4 44/76/4 42/94/4
f 28/67/1 44/76/1 43/93/1
f 27/13/3 43/93/3 41/95/3
f 25/26/6 41/95/6 42/94/6
f 47/96/3 48/98/3 46/97/3
f 13/41/6 45/42/6 46/97/6
f 14/9/4 46/97/4 48/98/4
f 16/37/1 48/98/1 47/96/1
f 51/99/2 52/101/2 50/30/2
f 10/22/3 50/30/3 52/101/3
f 12/20/1 52/101/1 51/99/1
f 11/7/5 51/99/5 49/100/5
f 55/102/5 56/104/5 54/103/5
f 21/47/6 53/64/6 54/103/6
f 22/23/2 54/103/2 56/104/2
f 24/60/1 56/104/1 55/102/1
f 63/105/7 64/129/7 67/65/7
f 59/43/8 60/12/8 71/79/8
f 61/107/9 62/6/9 75/85/9
f 57/109/10 58/15/10 79/81/10
f 59/111/7 65/112/7 66/80/7
f 68/106/7 67/65/7 66/80/7
f 57/113/8 69/78/8 70/82/8
f 72/44/8 71/79/8 70/82/8
f 63/114/9 73/115/9 74/86/9
f 76/108/9 75/85/9 74/86/9
f 61/116/10 77/117/10 78/83/10
f 80/110/10 79/81/10 78/83/10
f 80/70/1 29/69/1 69/78/1
f 87/71/11 88/127/11 91/118/11
f 85/36/12 86/123/12 95/119/12
f 83/120/13 84/130/13 99/121/13
f 81/38/14 82/56/14 103/57/14
f 85/36/11 89/35/11 90/122/11
f 92/63/11 91/118/11 90/122/11
f 81/38/12 93/40/12 94/124/12
f 96/34/12 95/119/12 94/124/12
f 87/71/13 97/75/13 98/126/13
f 100/74/13 99/121/13 98/126/13
f 83/120/14 101/73/14 102/11/14
f 104/49/14 103/57/14 102/11/14
f 2/21/3 13/41/3 103/57/3
